inDegrees=no
num_controls=7
num_derivatives=13
num_iterations=121
num_multipliers=7
num_parameters=0
num_slacks=7
num_states=26
objective=0.497063
objective_accelerations=0.032337
objective_balance=0.003282
objective_effort=0.035071
objective_height=0.420878
objective_ligament=0.005495
solver_duration=1376.125622
status=Solve_Succeeded
success=true
DataType=double
version=3
OpenSimVersion=4.5
endheader
time	/jointset/ground_pelvis/pelvis_tilt/value	/jointset/ground_pelvis/pelvis_tx/value	/jointset/ground_pelvis/pelvis_ty/value	/jointset/hip_r/hip_flexion_r/value	/jointset/hip_r/hip_adduction_r/value	/jointset/hip_r/hip_rotation_r/value	/jointset/back/lumbar_extension/value	/jointset/patellofemoral_r/patellar_flexion_r/value	/jointset/knee_r/knee_flexion_r/value	/jointset/knee_r/knee_adduction_r/value	/jointset/knee_r/knee_rotation_r/value	/jointset/ankle_r/ankle_angle_r/value	/jointset/subtalar_r/subtalar_angle_r/value	/jointset/ground_pelvis/pelvis_tilt/speed	/jointset/ground_pelvis/pelvis_tx/speed	/jointset/ground_pelvis/pelvis_ty/speed	/jointset/hip_r/hip_flexion_r/speed	/jointset/hip_r/hip_adduction_r/speed	/jointset/hip_r/hip_rotation_r/speed	/jointset/back/lumbar_extension/speed	/jointset/patellofemoral_r/patellar_flexion_r/speed	/jointset/knee_r/knee_flexion_r/speed	/jointset/knee_r/knee_adduction_r/speed	/jointset/knee_r/knee_rotation_r/speed	/jointset/ankle_r/ankle_angle_r/speed	/jointset/subtalar_r/subtalar_angle_r/speed	/forceset/tau_hip_flexion_r	/forceset/tau_hip_adduction_r	/forceset/tau_hip_rotation_r	/forceset/tau_knee_flexion_r	/forceset/tau_ankle_angle_r	/forceset/tau_subtalar_angle_r	/forceset/tau_lumbar_extension	lambda_cid13_p0	lambda_cid14_p0	lambda_cid14_p1	lambda_cid14_p2	lambda_cid14_p3	lambda_cid14_p4	lambda_cid14_p5	/jointset/ground_pelvis/pelvis_tilt/accel	/jointset/ground_pelvis/pelvis_tx/accel	/jointset/ground_pelvis/pelvis_ty/accel	/jointset/hip_r/hip_flexion_r/accel	/jointset/hip_r/hip_adduction_r/accel	/jointset/hip_r/hip_rotation_r/accel	/jointset/back/lumbar_extension/accel	/jointset/patellofemoral_r/patellar_flexion_r/accel	/jointset/knee_r/knee_flexion_r/accel	/jointset/knee_r/knee_adduction_r/accel	/jointset/knee_r/knee_rotation_r/accel	/jointset/ankle_r/ankle_angle_r/accel	/jointset/subtalar_r/subtalar_angle_r/accel	gamma_cid13_p0	gamma_cid14_p0	gamma_cid14_p1	gamma_cid14_p2	gamma_cid14_p3	gamma_cid14_p4	gamma_cid14_p5
0.5	-0.09729052545807471	0.05160422042681293	0.8633577386659739	0.6932619519325085	-0.2302516226313436	-0.1329067033641641	-0.3177696115665905	0.6889081160454414	0.6889081160454101	0.04155046950181775	0.1745107680120679	0.2638552299346746	0.05653203079281298	-0.2611319136169115	-0.08976919542413844	-0.326723321158274	1.404409529869214	-0.00800789867458091	0.2560104291225133	-0.6005461933314428	1.664743309192282	1.664743309192276	-0.2787745889567769	-6.731070254470102e-05	0.6108724109502901	0.1637264509877295	-0.07474663769273701	-0.01855825368876634	0.008313398472789689	-0.3406598978263146	0.06352730561004956	-0.01047079606302962	0.1349848588796072	-31.96223966643774	-21.83836488367846	-4.468815264461918	-3.285049454631264	3.473161248389508	-670.8172033179383	59.79359204860017	0.06142065102834307	0.278708784433205	-0.3434236217485885	-0.862312490890962	-0.05214557797004597	-0.5578338252626043	1.306251942995523	-1.146482170978801	-1.1464821709788	0.3860635325306689	0.002950492278693582	-0.4758211451975776	-0.06463262816094335	-1.091981576589409e-07	-1.569354270633115e-07	5.270422353374502e-07	-1.2362365708987e-06	4.046504386080066e-08	-2.114718934019259e-07	8.397163742564755e-07
0.51	-0.09989832499020354	0.05072057500932475	0.8600740632146666	0.707260703748953	-0.2303350560371813	-0.1303734085725692	-0.323709053880052	0.7054957037733673	0.7054957037733672	0.03878438153212135	0.1745101949800923	0.2699390214154959	0.05816468741402102	-0.2603915084421812	-0.08695062882010132	-0.3299376777024294	1.39514655862041	-0.008681760927426381	0.2506579247108591	-0.5872635934768351	1.652537916706433	1.652537916706429	-0.2744076859374448	-5.33616851639327e-05	0.6057997909981241	0.1627716270860559	-0.08002240090248791	-0.01672244899717918	0.00897119988370376	-0.3434266325163349	0.05920830191628063	-0.009892350818595949	0.1398318137521341	-31.01329485617988	-23.36700972124907	-4.604477446342438	-3.127235705937977	4.088618674908126	-673.9983618386461	59.5520337943539	0.08581044496129639	0.2848285976918798	-0.2993708602541629	-0.9874477243108423	-0.07561667428324241	-0.5227316772322783	1.351065389261644	-1.29299467869812	-1.292994678697908	0.4673077620717576	-0.0005082811537240614	-0.5359057029641342	-0.115961546881911	-9.235245568608568e-08	-1.148667325198504e-07	5.856255916396408e-07	-9.178410815092813e-07	8.347094046082674e-09	-1.657582312906419e-07	7.36059281278702e-07
0.52	-0.1024976284717311	0.04986539485773758	0.8567604583600167	0.7211609941964223	-0.2304253500906161	-0.1278933934107137	-0.3295133099184539	0.7219541521981733	0.7219541521982032	0.0360630234077057	0.1745095363607656	0.2759695020402478	0.05978678494107004	-0.259432703496817	-0.0840761422439372	-0.3327092018267928	1.384717256074175	-0.009380028193929527	0.2453545031745864	-0.5735089383195001	1.638915448568176	1.638915448568173	-0.2698286199006219	-8.442817264283927e-05	0.6002102397364376	0.1616146321559287	-0.08529816411224235	-0.01488664430559177	0.009629001294613511	-0.3461933672063556	0.05488929822251174	-0.009313905574161882	0.1446787686246579	-30.05643412631186	-24.90000369979141	-4.738403925417535	-2.972551799722829	4.690578707293173	-677.2526980495567	59.37351894100462	0.1051006051550932	0.2898927788586291	-0.2548571377901471	-1.095578750377478	-0.05702658070158483	-0.5480172501863434	1.400663003540954	-1.42989730146059	-1.42989730146059	0.4284961360288294	-0.006052608693236882	-0.5792074071016325	-0.105066833851674	-6.617612665251201e-08	-3.067945747603381e-08	7.818692860953084e-07	-2.992477169854411e-07	-6.683038188329644e-08	-6.728379091332904e-08	5.908061036278875e-07
0.53	-0.105086372512642	0.04903921272236059	0.8534213765391172	0.7349514486362475	-0.2305223060352931	-0.1254678425338256	-0.335177670712145	0.7382694781291472	0.7382694781291342	0.03338663923081091	0.1745092196707759	0.2819417179077536	0.06139696605935022	-0.2582793862626616	-0.08115227400685697	-0.335028940875808	1.373179002019492	-0.01002077355915661	0.2398009588896863	-0.559298088678759	1.62391848530902	1.623918485309018	-0.2653808675781603	-4.627588246573354e-06	0.5941495935151401	0.1603780240003174	-0.0903688088906409	-0.01326298317295332	0.01030791931408408	-0.3492694610743395	0.05096209207825267	-0.008826421596232944	0.1493649153170357	-29.0936582158307	-26.3171937291865	-4.896870969064233	-2.807887199710177	5.229218660362726	-680.5806221528965	59.21165368075064	0.1259551750871589	0.2948142063747747	-0.2088021788237266	-1.212142029398063	-0.06896418725125351	-0.5522854291435885	1.441065705301423	-1.569273200445085	-1.569273200444963	0.4631424925929833	0.01115845421171759	-0.6320175580236883	-0.1393508316572905	-4.01523020772584e-08	5.317891510563195e-08	9.903895847339972e-07	3.15211799596527e-07	-1.432499912317634e-07	2.746753234947144e-08	4.738420608759338e-07
0.54	-0.1076624818027024	0.04824250534140286	0.8500614433496539	0.7486206818762491	-0.2306259425681865	-0.1230964795820864	-0.3406979690572366	0.7544278989550719	0.7544278989550118	0.03075677811958612	0.1745089333990674	0.2878508224473704	0.062993502491026	-0.2569057533268543	-0.07818119136008582	-0.3368794755394854	1.36047301610943	-0.01071614583710402	0.2345169181447172	-0.5446964485995908	1.607534427557781	1.60753442755778	-0.2605240067661732	-7.834451562349118e-05	0.5875879741586478	0.1588856948350489	-0.09543945366904101	-0.01163932204031157	0.01098683733350565	-0.3523455549423231	0.04703488593399497	-0.008338937618297747	0.1540510620094116	-28.12571267588283	-27.7405321290593	-5.055669329069539	-2.644020448361938	5.767553213140565	-684.00385010517	59.07422684007383	0.1491637454854072	0.2993356607968341	-0.1610162607225924	-1.329125121453488	-0.0679519632456555	-0.4941165422001413	1.478821091226371	-1.70731619987742	-1.707316199877421	0.5103178339339239	-0.03675611104787	-0.6794020341405469	-0.1562110357831032	-1.429720583886954e-08	1.366733956015138e-07	1.212492509277305e-06	9.25097697178977e-07	-2.210438758524126e-07	1.180996622089815e-07	3.881766354588908e-07
0.55	-0.1102239275447511	0.04747571830030439	0.8466853526959258	0.7621574051579997	-0.2307362619967536	-0.1207790198582539	-0.3460702656073558	0.7704157779674042	0.7704157779673687	0.02817494336789259	0.1745083843382056	0.2936920755472129	0.06457468726588586	-0.2553516130640002	-0.07516953681775684	-0.3382583278139089	1.346687560395184	-0.01135125773704426	0.2289909845638257	-0.5297075051184958	1.589821628236227	1.589821628236226	-0.2558082708368222	-4.104995163279937e-05	0.5805883849730457	0.157317991424483	-0.1002593356150353	-0.0101424612476027	0.01158553552771799	-0.3556705768837264	0.04353155387309803	-0.00786377385744021	0.1585322636402516	-27.15365753771886	-29.02715151310914	-5.195507940143175	-2.483602261035044	6.208732685949051	-687.4073907653644	58.99665039487481	0.1633198136213823	0.303029661904631	-0.1142370948878653	-1.430848138015483	-0.06150654182600844	-0.5793753714598695	1.517234422378726	-1.836223760281873	-1.836223760281828	0.4576408880713815	0.02279258326765786	-0.7214141267111235	-0.1616826197180128	1.746222976100581e-09	1.869510007528509e-07	1.348573367538111e-06	1.287781993922438e-06	-2.68358388682009e-07	1.718088937304458e-07	3.548848249938513e-07
0.5600000000000001	-0.1127688757547832	0.04673923766681998	0.8432978900426362	0.7755507554142868	-0.2308529756920115	-0.1185163281913159	-0.3512910120334984	0.786219936594123	0.7862199365941122	0.02564135385862039	0.1745079722916141	0.2994610974020112	0.06613926848143513	-0.2536062469237099	-0.07211990983727085	-0.3391538754517587	1.331798411016724	-0.0119949991752959	0.2235633067658857	-0.5143864238042963	1.570790350435173	1.570790350435172	-0.2508749582820435	-5.094166183754643e-05	0.5731417251498006	0.1555649829729302	-0.1050792175610342	-0.00864560045489567	0.01218423372194685	-0.3589955988251308	0.04002822181220041	-0.007388610096585673	0.1630134652710879	-26.17884445705992	-30.3218104754722	-5.338154302130473	-2.321135662763238	6.662233340079462	-690.932413366792	58.90559686845523	0.187408920972637	0.3069301484282554	-0.06435533340786415	-1.549863854296275	-0.06967787090793888	-0.4744653856098182	1.545248657847266	-1.971011895777541	-1.97101189577754	0.5538331590194556	-0.04619336588695277	-0.7688161616691306	-0.1932720439804543	6.015650882968586e-09	1.973683554907357e-07	1.381427746259918e-06	1.353824369659121e-06	-2.790976553623431e-07	1.812106472462565e-07	3.84441352471214e-07
0.5700000000000001	-0.1152954382673177	0.04603338504494608	0.8399038921209356	0.788789869524114	-0.2309760791533836	-0.1163079286575981	-0.356356969346702	0.8018273455858472	0.801827345585825	0.02315760170702611	0.1745074740119897	0.305153478022204	0.06768553457731855	-0.2516741534028897	-0.06904947461120328	-0.3395643040032432	1.31585170959921	-0.01262317233951942	0.2181116642232468	-0.4987606345610466	1.550484346435368	1.550484346435367	-0.2458665642170015	-4.698576305594551e-05	0.5652637655869377	0.1536631648763211	-0.1098521430578052	-0.006981056982539722	0.01266547003724604	-0.3620782244503627	0.03629279351870164	-0.006917397457331814	0.1674124383830836	-25.20287140782588	-31.68749084784215	-5.498111483305559	-2.152301921276274	7.202702407083805	-694.353896229928	58.75061751124495	0.2009401751501278	0.3072141642172369	-0.01713857748816169	-1.642956319208066	-0.05867669289747267	-0.5811812002915017	1.577904698837435	-2.091461559389917	-2.091461559389862	0.4759227913606002	0.02423845703919115	-0.8079197812333175	-0.1920136334862459	8.370258051271059e-09	1.991162615288609e-07	1.377969488035338e-06	1.355997078534131e-06	-2.804321981068457e-07	1.817738493150703e-07	4.137635413430464e-07
